<?xml version="1.0" encoding="UTF-8"?>
<svg id="Layer_2" data-name="Layer 2" xmlns="http://www.w3.org/2000/svg" viewBox="0 0 47.18 24.15">
  <defs>
    <style>
      .cls-1 {
        fill: #c5b278;
      }
    </style>
  </defs>
  <g id="Phya_Logo_BlackGold_copy_Image" data-name="Phya_Logo_BlackGold copy Image">
    <g>
      <path class="cls-1" d="M46.73,3.5c.06,2.09-1.15,3.76-2.64,5.09-3.51,3.13-7.63,5.31-12.39,5.75v.47c4.39-.04,8.69-2.05,11.91-4.94.56-.5.83-1.16,1.52-1.43-1.09,4.91-7.26,7.91-11.92,8.28-.49.04-2.67-.18-2.8,0-.09.13,0,.56.26.61,3.06.36,5.87.11,8.54-1.48.8-.48,1.49-1.33,2.39-1.52.15.13-.9,1.41-1.06,1.58-2.77,3.04-6.5,3.95-10.46,2.8-.68-.2-.78-.75-1.44.16,0,.61,3.5,1.32,4.08,1.35,1.33.08,2.22-.23,3.44-.63.36.33-2.02,2.07-2.34,2.21-1.55.66-3.55.42-4.97-.43-.59-.35-1.08-1.12-1.81-1.15-.2.2.7,1.25.88,1.44,1.1,1.15,2.32,1.61,3.92,1.43.28.24-.75.72-.9.78-2.36.93-4.02-.69-5.26-2.5-.44-.04-1.29,1.85-1.77,1.09-.04-.06.06-1.34.09-1.51.14-.73,2.03-1.67,2.63-2.16,1.3-1.07,3.36-3.41,3.3-5.18-.03-.99-1.23-1.84-.34-2.72,2.93-1.64,6.16-2.96,9.02-4.72,1.67-1.03,3.98-2.55,5.53-3.73C44.61,2.1,46.78,0,46.97,0s.23.32.21.52c-.21,1.81-2.21,3.81-3.57,4.89-3.51,2.79-7.93,4.91-11.92,6.94-.05.2.15.38.37.37.25-.01,1.57-.51,1.92-.65,3.5-1.37,8.86-4.7,11.48-7.37.2-.2.92-1.57,1.28-1.19Z"/>
      <path class="cls-1" d="M23.21,22.63c-.83.33-1.18-1.16-1.68-1.23-.35-.05-.88,1.11-1.22,1.45-1.36,1.34-3.82,1.99-5.1.26,2.06.35,4-.98,4.89-2.71l-.33-.31c-1.84,2.12-5.06,2.95-7.43,1.18-.2-.15-1.64-1.48-1.45-1.66,1.32.48,2.14.72,3.58.62.6-.04,3.68-.73,3.93-1.1.1-.15-.02-.4-.15-.55-.47-.5-1.28.16-1.79.29-3.03.76-6.31.28-8.69-1.8-.3-.26-2.4-2.46-2.15-2.71,2.02,1.38,3.7,2.58,6.2,2.99,1.11.18,3.65.36,4.64-.08.43-.19.27-.63-.28-.61-.77.03-1.53.15-2.32.09-4.73-.37-10.43-3.38-11.92-8.12.6-.06.84.65,1.28,1.04,2.83,2.5,6.98,4.84,10.82,5.16.25.02,1.5.13,1.5-.22-.56-.55-1.39-.31-2.09-.47-2.48-.55-4.99-1.56-7.08-2.99C3.69,9.31.66,7.14.33,3.66c.36-.35,1.58,1.36,1.83,1.6,2.26,2.15,9.15,6.48,12.12,7.21.41.1.92.29,1.25-.13-2.1-.9-4.17-1.96-6.16-3.11C6.46,7.55,1.03,4.31.08.96-.05.5-.1-.23.49.24c1.22.97,2.15,2.05,3.53,3.02,4.25,2.97,8.81,5.4,13.51,7.58.82.82-.08,1.5-.3,2.27-.46,1.61,1.38,4.01,2.53,5.08,1.55,1.44,3.99,1.87,3.44,4.46Z"/>
      <path class="cls-1" d="M17.46,9.25l2.16-1.28c.74-.14,7.71-.08,8.19.11.09.04,1.58,1,1.64,1.07.57.63-.22.8-.46,1.14-.9,1.25.18,2.26.15,3.32s-1.54,3.15-2.33,3.91c-.36.34-2.95,2.38-3.21,2.4-.16.01-.24-.02-.38-.09-.27-.12-2.3-1.82-2.65-2.15-1.01-.93-2.43-2.65-2.49-4.07s.88-1.73.04-3.22c-.24-.43-.77-.63-.67-1.15Z"/>
    </g>
  </g>
</svg>